<mxfile host="app.diagrams.net" modified="2021-05-30T12:10:54.490Z" agent="5.0 (Windows NT 10.0; Win64; x64) AppleWebKit/537.36 (KHTML, like Gecko) Chrome/91.0.4472.77 Safari/537.36" etag="Lam2wTrxzVLEV_ZzZea_" version="14.7.3" type="github">
  <diagram name="Page-1" id="0783ab3e-0a74-02c8-0abd-f7b4e66b4bec">
    <mxGraphModel dx="1044" dy="491" grid="1" gridSize="10" guides="1" tooltips="1" connect="1" arrows="1" fold="1" page="1" pageScale="1" pageWidth="850" pageHeight="1100" background="none" math="0" shadow="0">
      <root>
        <mxCell id="0" />
        <mxCell id="1" parent="0" />
        <mxCell id="Qo_XpwzRg3zQpQrtO2vf-1" value="" style="endArrow=none;html=1;strokeWidth=2;" edge="1" parent="1">
          <mxGeometry width="50" height="50" relative="1" as="geometry">
            <mxPoint x="120" y="340" as="sourcePoint" />
            <mxPoint x="120" y="120" as="targetPoint" />
          </mxGeometry>
        </mxCell>
        <mxCell id="Qo_XpwzRg3zQpQrtO2vf-3" value="" style="endArrow=none;html=1;strokeWidth=2;" edge="1" parent="1">
          <mxGeometry width="50" height="50" relative="1" as="geometry">
            <mxPoint x="320" y="340" as="sourcePoint" />
            <mxPoint x="320" y="120" as="targetPoint" />
          </mxGeometry>
        </mxCell>
        <mxCell id="Qo_XpwzRg3zQpQrtO2vf-6" value="&lt;b&gt;&lt;font style=&quot;font-size: 15px&quot;&gt;SME&lt;/font&gt;&lt;/b&gt;" style="text;html=1;strokeColor=none;fillColor=none;align=center;verticalAlign=middle;whiteSpace=wrap;rounded=0;" vertex="1" parent="1">
          <mxGeometry x="100" y="100" width="40" height="20" as="geometry" />
        </mxCell>
        <mxCell id="Qo_XpwzRg3zQpQrtO2vf-7" value="&lt;b&gt;&lt;font style=&quot;font-size: 15px&quot;&gt;MLME&lt;/font&gt;&lt;/b&gt;" style="text;html=1;strokeColor=none;fillColor=none;align=center;verticalAlign=middle;whiteSpace=wrap;rounded=0;" vertex="1" parent="1">
          <mxGeometry x="300" y="100" width="40" height="20" as="geometry" />
        </mxCell>
        <mxCell id="Qo_XpwzRg3zQpQrtO2vf-8" value="&lt;b&gt;&lt;font style=&quot;font-size: 18px&quot;&gt;STA A&lt;/font&gt;&lt;/b&gt;" style="text;html=1;strokeColor=none;fillColor=none;align=center;verticalAlign=middle;whiteSpace=wrap;rounded=0;" vertex="1" parent="1">
          <mxGeometry x="190" y="80" width="70" height="20" as="geometry" />
        </mxCell>
        <mxCell id="Qo_XpwzRg3zQpQrtO2vf-9" value="" style="endArrow=classic;html=1;strokeWidth=2;" edge="1" parent="1">
          <mxGeometry width="50" height="50" relative="1" as="geometry">
            <mxPoint x="120" y="200" as="sourcePoint" />
            <mxPoint x="320" y="200" as="targetPoint" />
          </mxGeometry>
        </mxCell>
        <mxCell id="Qo_XpwzRg3zQpQrtO2vf-10" value="MLME-FINETIMINGMSMT&lt;br&gt;.request" style="text;html=1;strokeColor=none;fillColor=none;align=center;verticalAlign=middle;whiteSpace=wrap;rounded=0;" vertex="1" parent="1">
          <mxGeometry x="140" y="170" width="160" height="20" as="geometry" />
        </mxCell>
        <mxCell id="Qo_XpwzRg3zQpQrtO2vf-11" value="" style="endArrow=classic;html=1;strokeWidth=2;" edge="1" parent="1">
          <mxGeometry width="50" height="50" relative="1" as="geometry">
            <mxPoint x="320" y="281" as="sourcePoint" />
            <mxPoint x="120" y="281" as="targetPoint" />
          </mxGeometry>
        </mxCell>
        <mxCell id="Qo_XpwzRg3zQpQrtO2vf-12" value="MLME-FINETIMINGMSMT&lt;br&gt;.confirm" style="text;html=1;strokeColor=none;fillColor=none;align=center;verticalAlign=middle;whiteSpace=wrap;rounded=0;" vertex="1" parent="1">
          <mxGeometry x="140" y="250" width="160" height="20" as="geometry" />
        </mxCell>
        <mxCell id="Qo_XpwzRg3zQpQrtO2vf-14" value="" style="endArrow=none;html=1;strokeWidth=2;" edge="1" parent="1">
          <mxGeometry width="50" height="50" relative="1" as="geometry">
            <mxPoint x="380" y="340" as="sourcePoint" />
            <mxPoint x="380" y="120" as="targetPoint" />
          </mxGeometry>
        </mxCell>
        <mxCell id="Qo_XpwzRg3zQpQrtO2vf-15" value="&lt;b&gt;Antenna&lt;/b&gt;" style="text;html=1;strokeColor=none;fillColor=none;align=center;verticalAlign=middle;whiteSpace=wrap;rounded=0;" vertex="1" parent="1">
          <mxGeometry x="360" y="100" width="40" height="20" as="geometry" />
        </mxCell>
        <mxCell id="Qo_XpwzRg3zQpQrtO2vf-16" value="" style="endArrow=none;html=1;strokeWidth=2;" edge="1" parent="1">
          <mxGeometry width="50" height="50" relative="1" as="geometry">
            <mxPoint x="500" y="340" as="sourcePoint" />
            <mxPoint x="500" y="120" as="targetPoint" />
          </mxGeometry>
        </mxCell>
        <mxCell id="Qo_XpwzRg3zQpQrtO2vf-18" value="&lt;b&gt;Antenna&lt;/b&gt;" style="text;html=1;strokeColor=none;fillColor=none;align=center;verticalAlign=middle;whiteSpace=wrap;rounded=0;" vertex="1" parent="1">
          <mxGeometry x="480" y="100" width="40" height="20" as="geometry" />
        </mxCell>
        <mxCell id="Qo_XpwzRg3zQpQrtO2vf-28" value="" style="endArrow=none;html=1;strokeWidth=2;" edge="1" parent="1">
          <mxGeometry width="50" height="50" relative="1" as="geometry">
            <mxPoint x="560" y="340" as="sourcePoint" />
            <mxPoint x="560" y="120" as="targetPoint" />
          </mxGeometry>
        </mxCell>
        <mxCell id="Qo_XpwzRg3zQpQrtO2vf-29" value="" style="endArrow=none;html=1;strokeWidth=2;" edge="1" parent="1">
          <mxGeometry width="50" height="50" relative="1" as="geometry">
            <mxPoint x="760" y="340" as="sourcePoint" />
            <mxPoint x="760" y="120" as="targetPoint" />
          </mxGeometry>
        </mxCell>
        <mxCell id="Qo_XpwzRg3zQpQrtO2vf-30" value="&lt;b&gt;&lt;font style=&quot;font-size: 15px&quot;&gt;MLME&lt;/font&gt;&lt;/b&gt;" style="text;html=1;strokeColor=none;fillColor=none;align=center;verticalAlign=middle;whiteSpace=wrap;rounded=0;" vertex="1" parent="1">
          <mxGeometry x="540" y="100" width="40" height="20" as="geometry" />
        </mxCell>
        <mxCell id="Qo_XpwzRg3zQpQrtO2vf-31" value="&lt;b&gt;&lt;font style=&quot;font-size: 15px&quot;&gt;SME&lt;/font&gt;&lt;/b&gt;" style="text;html=1;strokeColor=none;fillColor=none;align=center;verticalAlign=middle;whiteSpace=wrap;rounded=0;" vertex="1" parent="1">
          <mxGeometry x="740" y="100" width="40" height="20" as="geometry" />
        </mxCell>
        <mxCell id="Qo_XpwzRg3zQpQrtO2vf-32" value="&lt;b&gt;&lt;font style=&quot;font-size: 18px&quot;&gt;STA B&lt;/font&gt;&lt;/b&gt;" style="text;html=1;strokeColor=none;fillColor=none;align=center;verticalAlign=middle;whiteSpace=wrap;rounded=0;" vertex="1" parent="1">
          <mxGeometry x="640" y="80" width="70" height="20" as="geometry" />
        </mxCell>
        <mxCell id="Qo_XpwzRg3zQpQrtO2vf-33" value="" style="endArrow=classic;html=1;strokeWidth=2;" edge="1" parent="1">
          <mxGeometry width="50" height="50" relative="1" as="geometry">
            <mxPoint x="560" y="240" as="sourcePoint" />
            <mxPoint x="760" y="240" as="targetPoint" />
          </mxGeometry>
        </mxCell>
        <mxCell id="Qo_XpwzRg3zQpQrtO2vf-37" value="" style="endArrow=classic;html=1;strokeWidth=2;" edge="1" parent="1">
          <mxGeometry width="50" height="50" relative="1" as="geometry">
            <mxPoint x="320" y="200" as="sourcePoint" />
            <mxPoint x="560" y="230" as="targetPoint" />
          </mxGeometry>
        </mxCell>
        <mxCell id="Qo_XpwzRg3zQpQrtO2vf-38" value="" style="endArrow=classic;html=1;strokeWidth=2;" edge="1" parent="1">
          <mxGeometry width="50" height="50" relative="1" as="geometry">
            <mxPoint x="318.4000244140625" y="280" as="sourcePoint" />
            <mxPoint x="560" y="250" as="targetPoint" />
          </mxGeometry>
        </mxCell>
        <mxCell id="Qo_XpwzRg3zQpQrtO2vf-40" value="" style="endArrow=classic;html=1;strokeWidth=2;" edge="1" parent="1">
          <mxGeometry width="50" height="50" relative="1" as="geometry">
            <mxPoint x="400" y="320" as="sourcePoint" />
            <mxPoint x="380" y="270" as="targetPoint" />
          </mxGeometry>
        </mxCell>
        <mxCell id="Qo_XpwzRg3zQpQrtO2vf-41" value="" style="endArrow=classic;html=1;strokeWidth=2;" edge="1" parent="1">
          <mxGeometry width="50" height="50" relative="1" as="geometry">
            <mxPoint x="400" y="160" as="sourcePoint" />
            <mxPoint x="380" y="210" as="targetPoint" />
          </mxGeometry>
        </mxCell>
        <mxCell id="Qo_XpwzRg3zQpQrtO2vf-42" value="" style="endArrow=classic;html=1;strokeWidth=2;" edge="1" parent="1">
          <mxGeometry width="50" height="50" relative="1" as="geometry">
            <mxPoint x="480" y="320" as="sourcePoint" />
            <mxPoint x="500" y="260" as="targetPoint" />
          </mxGeometry>
        </mxCell>
        <mxCell id="Qo_XpwzRg3zQpQrtO2vf-43" value="" style="endArrow=classic;html=1;strokeWidth=2;" edge="1" parent="1">
          <mxGeometry width="50" height="50" relative="1" as="geometry">
            <mxPoint x="480" y="160" as="sourcePoint" />
            <mxPoint x="500" y="220" as="targetPoint" />
          </mxGeometry>
        </mxCell>
        <mxCell id="Qo_XpwzRg3zQpQrtO2vf-44" value="&lt;b&gt;t&lt;sub&gt;1&lt;/sub&gt;&lt;/b&gt;" style="text;html=1;strokeColor=none;fillColor=none;align=center;verticalAlign=middle;whiteSpace=wrap;rounded=0;" vertex="1" parent="1">
          <mxGeometry x="380" y="140" width="40" height="20" as="geometry" />
        </mxCell>
        <mxCell id="Qo_XpwzRg3zQpQrtO2vf-45" value="&lt;b&gt;t&lt;sub&gt;2&lt;/sub&gt;&lt;/b&gt;" style="text;html=1;strokeColor=none;fillColor=none;align=center;verticalAlign=middle;whiteSpace=wrap;rounded=0;" vertex="1" parent="1">
          <mxGeometry x="460" y="140" width="40" height="20" as="geometry" />
        </mxCell>
        <mxCell id="Qo_XpwzRg3zQpQrtO2vf-46" value="&lt;b&gt;t&lt;span style=&quot;font-size: 10px&quot;&gt;4&lt;/span&gt;&lt;/b&gt;" style="text;html=1;strokeColor=none;fillColor=none;align=center;verticalAlign=middle;whiteSpace=wrap;rounded=0;" vertex="1" parent="1">
          <mxGeometry x="380" y="320" width="40" height="20" as="geometry" />
        </mxCell>
        <mxCell id="Qo_XpwzRg3zQpQrtO2vf-47" value="&lt;b&gt;t&lt;sub&gt;3&lt;/sub&gt;&lt;/b&gt;" style="text;html=1;strokeColor=none;fillColor=none;align=center;verticalAlign=middle;whiteSpace=wrap;rounded=0;" vertex="1" parent="1">
          <mxGeometry x="460" y="320" width="40" height="20" as="geometry" />
        </mxCell>
        <mxCell id="Qo_XpwzRg3zQpQrtO2vf-48" value="Fine Timing Measurement frame" style="text;html=1;strokeColor=none;fillColor=none;align=center;verticalAlign=middle;whiteSpace=wrap;rounded=0;rotation=7;" vertex="1" parent="1">
          <mxGeometry x="385" y="190" width="115" height="20" as="geometry" />
        </mxCell>
        <mxCell id="Qo_XpwzRg3zQpQrtO2vf-51" value="MLME-FINETIMINGMSMT&lt;br&gt;.indication" style="text;html=1;strokeColor=none;fillColor=none;align=center;verticalAlign=middle;whiteSpace=wrap;rounded=0;" vertex="1" parent="1">
          <mxGeometry x="580" y="210" width="160" height="20" as="geometry" />
        </mxCell>
      </root>
    </mxGraphModel>
  </diagram>
</mxfile>
